<?xml version="1.0" encoding="UTF-8" standalone="no"?>
<!DOCTYPE svg PUBLIC "-//W3C//DTD SVG 20010904//EN"
              "http://www.w3.org/TR/2001/REC-SVG-20010904/DTD/svg10.dtd">

<svg xmlns="http://www.w3.org/2000/svg"
     width="800" height="112"
     viewBox="0 0 800 112">
  <path id="Flame"
        fill="#FF9900" stroke="none" stroke-width="0"
        d="M 423.00,3.00
           C 425.64,7.83 423.18,10.68 429.46,21.00
             429.46,21.00 437.37,32.00 437.37,32.00
             447.06,44.86 454.55,52.18 455.19,69.00
             455.43,75.20 453.20,79.47 448.83,83.83
             445.91,86.74 443.92,87.94 440.00,89.00
             441.34,78.68 442.89,71.55 434.00,64.00
             433.45,67.47 432.00,73.13 429.36,75.59
             425.91,78.82 422.00,75.23 421.58,71.42
             421.00,66.13 427.14,61.33 427.00,52.00
             419.68,58.99 406.32,68.28 405.61,79.13
             405.30,83.86 406.56,87.59 408.00,92.00
             404.72,90.95 402.72,90.02 400.09,87.67
             390.47,79.07 390.11,65.33 394.47,54.00
             396.65,48.31 400.05,43.28 403.00,38.00
             403.00,38.00 409.00,43.00 409.00,43.00
             409.00,43.00 412.00,46.00 412.00,46.00
             412.00,46.00 413.00,45.00 413.00,45.00
             413.00,45.00 409.43,27.00 409.43,27.00
             409.78,19.00 417.69,8.59 423.00,3.00 Z" />

  <path id="Text"
        fill="#494949" stroke="none" stroke-width="0"
        d="M 56.00,40.00
           C 56.00,40.00 42.00,40.00 42.00,40.00
             42.00,40.00 42.00,52.00 42.00,52.00
             42.00,52.00 50.23,52.00 50.23,52.00
             50.23,52.00 55.77,49.67 55.77,49.67
             55.77,49.67 55.77,62.31 55.77,62.31
             55.77,62.31 50.23,60.00 50.23,60.00
             50.23,60.00 42.00,60.00 42.00,60.00
             42.00,60.00 42.00,76.12 42.00,76.12
             42.00,76.12 46.41,82.00 46.41,82.00
             46.41,82.00 23.20,82.00 23.20,82.00
             23.20,82.00 27.59,76.09 27.59,76.09
             27.59,76.09 27.59,36.91 27.59,36.91
             27.59,36.91 23.20,31.00 23.20,31.00
             23.20,31.00 61.52,31.00 61.52,31.00
             61.52,31.00 61.52,46.16 61.52,46.16
             61.52,46.16 56.00,40.00 56.00,40.00 Z
           M 66.16,82.00
           C 66.16,82.00 70.00,76.78 70.00,76.78
             70.00,76.78 70.00,42.28 70.00,42.28
             70.00,42.28 66.16,37.00 66.16,37.00
             66.16,37.00 86.94,37.00 86.94,37.00
             86.94,37.00 83.16,42.28 83.16,42.28
             83.16,42.28 83.16,76.78 83.16,76.78
             83.16,76.78 86.94,82.00 86.94,82.00
             86.94,82.00 66.16,82.00 66.16,82.00 Z
           M 131.30,51.33
           C 131.30,53.02 131.05,54.57 130.56,56.00
             130.07,57.43 129.38,58.70 128.50,59.80
             127.61,60.89 126.59,61.79 125.42,62.50
             124.25,63.20 123.02,63.69 121.70,63.97
             121.70,63.97 121.70,64.47 121.70,64.47
             122.36,64.61 123.00,64.90 123.62,65.34
             124.26,65.78 124.84,66.27 125.38,66.81
             125.91,67.36 126.38,67.89 126.75,68.41
             127.12,68.92 127.38,69.31 127.52,69.59
             127.52,69.59 130.17,76.05 130.17,76.05
             130.69,77.13 131.41,77.95 132.34,78.52
             133.28,79.08 134.47,79.20 135.92,78.86
             135.55,79.65 135.03,80.32 134.38,80.86
             133.73,81.40 132.99,81.82 132.17,82.12
             131.36,82.43 130.50,82.64 129.61,82.78
             128.72,82.93 127.91,83.00 127.17,83.00
             124.88,83.00 122.96,82.70 121.42,82.11
             119.89,81.53 118.66,80.23 117.72,78.22
             117.72,78.22 113.72,69.27 113.72,69.27
             113.35,68.42 112.75,67.70 111.91,67.09
             111.06,66.49 110.20,66.19 109.31,66.19
             109.31,66.19 109.31,76.81 109.31,76.81
             109.31,76.81 113.17,82.00 113.17,82.00
             113.17,82.00 92.80,81.88 92.80,81.88
             92.80,81.88 96.66,76.67 96.66,76.67
             96.66,76.67 96.66,42.20 96.66,42.20
             96.66,42.20 92.80,37.00 92.80,37.00
             92.80,37.00 111.84,37.00 111.84,37.00
             114.59,37.00 117.16,37.33 119.53,37.98
             121.91,38.64 123.98,39.59 125.73,40.83
             127.48,42.07 128.85,43.58 129.83,45.36
             130.80,47.14 131.30,49.13 131.30,51.33 Z
           M 118.20,51.91
           C 118.20,50.09 117.91,48.59 117.33,47.42
             116.74,46.26 116.01,45.34 115.12,44.66
             114.24,43.98 113.27,43.54 112.22,43.33
             111.16,43.12 110.20,43.09 109.31,43.22
             109.31,43.22 109.31,59.59 109.31,59.59
             110.44,59.88 111.52,59.94 112.56,59.78
             113.61,59.62 114.55,59.22 115.39,58.59
             116.23,57.96 116.91,57.09 117.42,56.00
             117.94,54.90 118.20,53.53 118.20,51.91 Z
           M 138.80,82.00
           C 138.80,82.00 142.66,76.78 142.66,76.78
             142.66,76.78 142.66,42.22 142.66,42.22
             142.66,42.22 138.80,37.00 138.80,37.00
             138.80,37.00 172.75,37.00 172.75,37.00
             172.75,37.00 172.75,50.39 172.75,50.39
             172.75,50.39 167.92,45.00 167.92,45.00
             167.92,45.00 155.25,45.00 155.25,45.00
             155.25,45.00 155.25,56.00 155.25,56.00
             155.25,56.00 162.53,56.00 162.53,56.00
             162.53,56.00 167.30,53.97 167.30,53.97
             167.30,53.97 167.30,65.03 167.30,65.03
             167.30,65.03 162.53,63.00 162.53,63.00
             162.53,63.00 155.25,63.00 155.25,63.00
             155.25,63.00 155.25,74.00 155.25,74.00
             155.25,74.00 167.92,74.00 167.92,74.00
             167.92,74.00 172.75,68.69 172.75,68.69
             172.75,68.69 172.75,82.00 172.75,82.00
             172.75,82.00 138.80,82.00 138.80,82.00 Z
           M 178.80,82.00
           C 178.80,82.00 182.66,76.78 182.66,76.78
             182.66,76.78 182.66,42.22 182.66,42.22
             182.66,42.22 178.80,37.00 178.80,37.00
             178.80,37.00 199.17,37.00 199.17,37.00
             199.17,37.00 195.31,42.20 195.31,42.20
             195.31,42.20 195.31,74.00 195.31,74.00
             195.31,74.00 207.16,74.00 207.16,74.00
             207.16,74.00 213.09,66.30 213.09,66.30
             213.09,66.30 213.09,82.00 213.09,82.00
             213.09,82.00 178.80,82.00 178.80,82.00 Z
           M 262.48,82.00
           C 262.48,82.00 241.27,82.00 241.27,82.00
             241.27,82.00 244.84,76.72 244.84,76.72
             244.84,76.72 242.73,71.00 242.73,71.00
             242.73,71.00 230.56,71.00 230.56,71.00
             230.56,71.00 228.53,76.72 228.53,76.72
             228.53,76.72 232.03,82.00 232.03,82.00
             232.03,82.00 215.30,82.00 215.30,82.00
             215.30,82.00 220.12,76.77 220.12,76.77
             220.12,76.77 232.38,42.73 232.38,42.73
             232.38,42.73 230.34,37.00 230.34,37.00
             230.34,37.00 244.00,37.00 244.00,37.00
             244.00,37.00 258.48,76.77 258.48,76.77
             258.48,76.77 262.48,82.00 262.48,82.00 Z
           M 236.66,54.20
           C 236.66,54.20 233.08,64.00 233.08,64.00
             233.08,64.00 240.22,64.00 240.22,64.00
             240.22,64.00 236.66,54.20 236.66,54.20 Z
           M 302.05,42.14
           C 302.05,42.14 302.05,82.00 302.05,82.00
             302.05,82.00 293.86,82.00 293.86,82.00
             293.86,82.00 279.70,57.36 279.70,57.36
             279.70,57.36 280.34,64.75 280.34,64.75
             280.34,64.75 280.34,76.80 280.34,76.80
             280.34,76.80 284.19,82.00 284.19,82.00
             284.19,82.00 264.80,82.00 264.80,82.00
             264.80,82.00 268.66,76.78 268.66,76.78
             268.66,76.78 268.66,42.14 268.66,42.14
             268.66,42.14 264.80,37.00 264.80,37.00
             264.80,37.00 278.38,37.00 278.38,37.00
             278.38,37.00 291.05,57.56 291.05,57.56
             291.05,57.56 290.28,49.95 290.28,49.95
             290.28,49.95 290.28,42.14 290.28,42.14
             290.28,42.14 286.50,37.00 286.50,37.00
             286.50,37.00 305.89,37.00 305.89,37.00
             305.89,37.00 302.05,42.14 302.05,42.14 Z
           M 352.19,58.83
           C 352.19,62.78 351.55,66.21 350.27,69.12
             348.98,72.03 347.23,74.44 345.02,76.34
             342.80,78.24 340.20,79.66 337.23,80.59
             334.27,81.53 331.12,82.00 327.77,82.00
             327.77,82.00 311.80,82.00 311.80,82.00
             311.80,82.00 315.66,76.78 315.66,76.78
             315.66,76.78 315.66,42.22 315.66,42.22
             315.66,42.22 311.80,37.00 311.80,37.00
             311.80,37.00 328.89,37.00 328.89,37.00
             332.43,37.00 335.64,37.48 338.53,38.45
             341.43,39.41 343.88,40.82 345.88,42.67
             347.88,44.53 349.44,46.82 350.53,49.55
             351.63,52.27 352.19,55.36 352.19,58.83 Z
           M 338.41,58.45
           C 338.41,56.58 338.22,54.68 337.84,52.75
             337.47,50.81 336.87,49.04 336.05,47.42
             335.23,45.81 334.19,44.50 332.91,43.50
             331.62,42.50 330.07,42.00 328.25,42.00
             328.25,42.00 328.25,76.02 328.25,76.02
             331.84,75.64 334.43,73.95 336.02,70.94
             337.61,67.93 338.41,63.77 338.41,58.45 Z
           M 390.55,69.23
           C 390.55,71.66 390.03,73.74 389.00,75.47
             387.98,77.19 386.65,78.61 385.02,79.73
             383.38,80.86 381.55,81.68 379.55,82.20
             377.55,82.73 375.59,83.00 373.67,83.00
             372.09,83.00 370.62,82.89 369.27,82.67
             367.91,82.46 366.67,82.24 365.55,82.00
             364.43,81.76 363.39,81.54 362.44,81.33
             361.48,81.11 360.62,81.00 359.88,81.00
             359.55,81.00 359.19,81.20 358.80,81.59
             358.40,81.98 358.06,82.45 357.78,83.00
             357.78,83.00 357.78,62.22 357.78,62.22
             358.16,64.03 358.82,65.77 359.78,67.42
             360.74,69.07 361.85,70.53 363.11,71.80
             364.37,73.06 365.70,74.07 367.09,74.84
             368.49,75.62 369.86,76.00 371.22,76.00
             372.11,76.00 372.97,75.95 373.78,75.83
             374.59,75.71 375.33,75.52 375.98,75.25
             376.64,74.97 377.16,74.58 377.56,74.08
             377.96,73.57 378.16,72.92 378.16,72.12
             378.16,70.89 377.83,69.75 377.17,68.72
             376.52,67.68 375.61,66.75 374.47,65.92
             373.33,65.09 371.99,64.33 370.45,63.64
             368.91,62.95 367.25,62.30 365.48,61.70
             362.82,60.78 360.58,59.28 358.78,57.20
             356.99,55.13 356.09,52.37 356.09,48.92
             356.09,46.98 356.54,45.23 357.42,43.67
             358.30,42.10 359.52,40.74 361.06,39.59
             362.60,38.44 364.41,37.55 366.48,36.94
             368.57,36.31 370.80,36.00 373.19,36.00
             375.66,36.00 377.91,36.34 379.94,37.00
             381.97,37.67 383.71,38.00 385.16,38.00
             385.48,38.00 385.84,37.81 386.23,37.42
             386.64,37.03 386.96,36.55 387.19,36.00
             387.19,36.00 387.19,53.08 387.19,53.08
             386.81,51.70 386.14,50.41 385.19,49.20
             384.23,47.98 383.12,46.91 381.86,45.98
             380.61,45.06 379.27,44.33 377.84,43.80
             376.41,43.27 375.05,43.00 373.75,43.00
             372.06,43.00 370.58,43.32 369.30,43.97
             368.02,44.61 367.38,45.50 367.38,46.66
             367.38,47.52 367.84,48.30 368.77,48.98
             369.70,49.67 370.88,50.35 372.31,51.02
             373.74,51.68 375.31,52.38 377.03,53.09
             378.76,53.80 380.41,54.62 382.00,55.53
             384.76,57.14 386.88,59.01 388.34,61.14
             389.81,63.28 390.55,65.98 390.55,69.23 Z
           M 506.12,82.00
           C 506.12,82.00 481.88,82.00 481.88,82.00
             481.88,82.00 485.95,76.23 485.95,76.23
             485.95,76.23 483.56,70.00 483.56,70.00
             483.56,70.00 469.64,70.00 469.64,70.00
             469.64,70.00 467.31,76.23 467.31,76.23
             467.31,76.23 471.31,82.00 471.31,82.00
             471.31,82.00 452.20,82.00 452.20,82.00
             452.20,82.00 457.72,75.94 457.72,75.94
             457.72,75.94 471.72,36.62 471.72,36.62
             471.72,36.62 469.41,30.00 469.41,30.00
             469.41,30.00 485.00,30.00 485.00,30.00
             485.00,30.00 501.56,75.94 501.56,75.94
             501.56,75.94 506.12,82.00 506.12,82.00 Z
           M 476.59,50.80
           C 476.59,50.80 472.52,62.00 472.52,62.00
             472.52,62.00 480.69,62.00 480.69,62.00
             480.69,62.00 476.59,50.80 476.59,50.80 Z
           M 507.80,82.00
           C 507.80,82.00 511.66,76.78 511.66,76.78
             511.66,76.78 511.66,42.22 511.66,42.22
             511.66,42.22 507.80,37.00 507.80,37.00
             507.80,37.00 528.17,37.00 528.17,37.00
             528.17,37.00 524.31,42.20 524.31,42.20
             524.31,42.20 524.31,74.00 524.31,74.00
             524.31,74.00 536.16,74.00 536.16,74.00
             536.16,74.00 542.09,66.30 542.09,66.30
             542.09,66.30 542.09,82.00 542.09,82.00
             542.09,82.00 507.80,82.00 507.80,82.00 Z
           M 576.08,82.00
           C 576.08,82.00 579.94,76.80 579.94,76.80
             579.94,76.80 579.94,64.61 579.94,64.61
             579.94,64.61 580.34,58.20 580.34,58.20
             580.34,58.20 570.48,76.08 570.48,76.08
             570.48,76.08 560.12,58.34 560.12,58.34
             560.12,58.34 560.47,64.61 560.47,64.61
             560.47,64.61 560.47,76.80 560.47,76.80
             560.47,76.80 564.31,82.00 564.31,82.00
             564.31,82.00 547.45,82.00 547.45,82.00
             547.45,82.00 551.30,76.78 551.30,76.78
             551.30,76.78 551.30,42.22 551.30,42.22
             551.30,42.22 547.45,37.00 547.45,37.00
             547.45,37.00 562.28,37.00 562.28,37.00
             562.28,37.00 572.44,55.03 572.44,55.03
             572.44,55.03 582.88,37.00 582.88,37.00
             582.88,37.00 596.73,37.00 596.73,37.00
             596.73,37.00 592.95,42.22 592.95,42.22
             592.95,42.22 592.95,76.78 592.95,76.78
             592.95,76.78 596.73,82.00 596.73,82.00
             596.73,82.00 576.08,82.00 576.08,82.00 Z
           M 645.48,82.00
           C 645.48,82.00 624.27,82.00 624.27,82.00
             624.27,82.00 627.84,76.72 627.84,76.72
             627.84,76.72 625.73,71.00 625.73,71.00
             625.73,71.00 613.56,71.00 613.56,71.00
             613.56,71.00 611.53,76.72 611.53,76.72
             611.53,76.72 615.03,82.00 615.03,82.00
             615.03,82.00 598.30,82.00 598.30,82.00
             598.30,82.00 603.12,76.77 603.12,76.77
             603.12,76.77 615.38,42.73 615.38,42.73
             615.38,42.73 613.34,37.00 613.34,37.00
             613.34,37.00 627.00,37.00 627.00,37.00
             627.00,37.00 641.48,76.77 641.48,76.77
             641.48,76.77 645.48,82.00 645.48,82.00 Z
           M 619.66,54.20
           C 619.66,54.20 616.08,64.00 616.08,64.00
             616.08,64.00 623.22,64.00 623.22,64.00
             623.22,64.00 619.66,54.20 619.66,54.20 Z
           M 685.05,42.14
           C 685.05,42.14 685.05,82.00 685.05,82.00
             685.05,82.00 676.86,82.00 676.86,82.00
             676.86,82.00 662.70,57.36 662.70,57.36
             662.70,57.36 663.34,64.75 663.34,64.75
             663.34,64.75 663.34,76.80 663.34,76.80
             663.34,76.80 667.19,82.00 667.19,82.00
             667.19,82.00 647.80,82.00 647.80,82.00
             647.80,82.00 651.66,76.78 651.66,76.78
             651.66,76.78 651.66,42.14 651.66,42.14
             651.66,42.14 647.80,37.00 647.80,37.00
             647.80,37.00 661.38,37.00 661.38,37.00
             661.38,37.00 674.05,57.56 674.05,57.56
             674.05,57.56 673.28,49.95 673.28,49.95
             673.28,49.95 673.28,42.14 673.28,42.14
             673.28,42.14 669.50,37.00 669.50,37.00
             669.50,37.00 688.89,37.00 688.89,37.00
             688.89,37.00 685.05,42.14 685.05,42.14 Z
           M 738.48,82.00
           C 738.48,82.00 717.27,82.00 717.27,82.00
             717.27,82.00 720.84,76.72 720.84,76.72
             720.84,76.72 718.73,71.00 718.73,71.00
             718.73,71.00 706.56,71.00 706.56,71.00
             706.56,71.00 704.53,76.72 704.53,76.72
             704.53,76.72 708.03,82.00 708.03,82.00
             708.03,82.00 691.30,82.00 691.30,82.00
             691.30,82.00 696.12,76.77 696.12,76.77
             696.12,76.77 708.38,42.73 708.38,42.73
             708.38,42.73 706.34,37.00 706.34,37.00
             706.34,37.00 720.00,37.00 720.00,37.00
             720.00,37.00 734.48,76.77 734.48,76.77
             734.48,76.77 738.48,82.00 738.48,82.00 Z
           M 712.66,54.20
           C 712.66,54.20 709.08,64.00 709.08,64.00
             709.08,64.00 716.22,64.00 716.22,64.00
             716.22,64.00 712.66,54.20 712.66,54.20 Z
           M 777.62,71.41
           C 776.64,75.04 774.68,77.89 771.73,79.94
             768.80,81.98 764.97,83.00 760.27,83.00
             757.69,83.00 755.20,82.54 752.80,81.61
             750.39,80.67 748.24,79.27 746.36,77.39
             744.47,75.51 742.96,73.12 741.81,70.25
             740.66,67.37 740.09,63.95 740.09,59.98
             740.09,56.59 740.60,53.45 741.62,50.55
             742.66,47.64 744.12,45.11 746.03,42.95
             747.95,40.79 750.27,39.09 753.00,37.86
             755.74,36.62 758.84,36.00 762.30,36.00
             763.41,36.00 764.46,36.11 765.44,36.31
             766.41,36.51 767.34,36.74 768.20,37.00
             769.07,37.26 769.86,37.50 770.58,37.70
             771.30,37.90 771.97,38.00 772.58,38.00
             773.09,38.00 773.64,37.81 774.25,37.42
             774.86,37.03 775.29,36.55 775.52,36.00
             775.52,36.00 775.52,54.77 775.52,54.77
             775.19,53.37 774.68,51.92 773.98,50.41
             773.29,48.90 772.44,47.53 771.45,46.30
             770.47,45.06 769.34,44.03 768.06,43.22
             766.78,42.41 765.41,42.00 763.97,42.00
             762.57,42.00 761.27,42.38 760.05,43.12
             758.84,43.87 757.77,44.98 756.86,46.47
             755.95,47.95 755.24,49.80 754.72,52.03
             754.21,54.25 753.95,56.84 753.95,59.81
             753.95,62.32 754.19,64.64 754.66,66.75
             755.12,68.86 755.79,70.66 756.66,72.17
             757.52,73.67 758.58,74.86 759.84,75.72
             761.10,76.57 762.55,77.00 764.19,77.00
             766.79,77.00 768.98,76.41 770.75,75.22
             772.53,74.03 774.00,72.15 775.17,69.58
             775.17,69.58 777.62,71.41 777.62,71.41 Z" />
</svg>
